<?xml version="1.0" encoding="utf-8"?>
<!-- Generator: Adobe Illustrator 24.3.0, SVG Export Plug-In . SVG Version: 6.00 Build 0)  -->
<svg version="1.1" id="Layer_1" xmlns="http://www.w3.org/2000/svg" xmlns:xlink="http://www.w3.org/1999/xlink" x="0px" y="0px"
	 viewBox="0 0 800 800" style="enable-background:new 0 0 800 800;" xml:space="preserve">
<style type="text/css">
	.st0{fill:#C42026;}
	.st1{fill-rule:evenodd;clip-rule:evenodd;fill:#C42026;}
</style>
<path class="st0" d="M216.7,266.7c27.6,0,50-22.4,50-50s-22.4-50-50-50s-50,22.4-50,50S189.1,266.7,216.7,266.7z"/>
<path class="st0" d="M166.7,333.3c0-18.4,14.9-33.3,33.3-33.3h33.3c18.4,0,33.3,14.9,33.3,33.3V600c0,18.4-14.9,33.3-33.3,33.3H200
	c-18.4,0-33.3-14.9-33.3-33.3V333.3z"/>
<path class="st0" d="M366.7,633.3H400c18.4,0,33.3-14.9,33.3-33.3V450c0-50,100-83.3,100-16.7V600c0,18.4,14.9,33.3,33.3,33.3H600
	c18.4,0,33.3-14.9,33.3-33.3V400c0-66.7-50-100-116.7-100s-83.3,50-83.3,50v-16.7c0-18.4-14.9-33.3-33.3-33.3h-33.3
	c-18.4,0-33.3,14.9-33.3,33.3V600C333.3,618.4,348.3,633.3,366.7,633.3z"/>
<path class="st1" d="M666.7,33.3c55.2,0,100,44.8,100,100v533.3c0,55.2-44.8,100-100,100H133.3c-55.2,0-100-44.8-100-100V133.3
	c0-55.2,44.8-100,100-100H666.7z M666.7,100c18.4,0,33.3,14.9,33.3,33.3v533.3c0,18.4-14.9,33.3-33.3,33.3H133.3
	c-18.4,0-33.3-14.9-33.3-33.3V133.3c0-18.4,14.9-33.3,33.3-33.3H666.7z"/>
</svg>
