<?xml version="1.0" encoding="utf-8"?>
<!-- Generator: Adobe Illustrator 24.3.0, SVG Export Plug-In . SVG Version: 6.00 Build 0)  -->
<svg version="1.1" id="Layer_1" xmlns="http://www.w3.org/2000/svg" xmlns:xlink="http://www.w3.org/1999/xlink" x="0px" y="0px"
	 viewBox="0 0 800 800" style="enable-background:new 0 0 800 800;" xml:space="preserve">
<style type="text/css">
	.st0{fill-rule:evenodd;clip-rule:evenodd;fill:#C42026;}
</style>
<desc>Created with Sketch.</desc>
<g id="Page-1">
	<g id="Dribbble-Light-Preview" transform="translate(-183.000000, -5439.000000)">
		<g id="icons" transform="translate(56.000000, 160.000000)">
			<path id="pin_x5F_sharp_x5F_circle-_x5B__x23_625_x5D_" class="st0" d="M527,5624.4c-22,0-40-17.9-40-40c0-22,18-40,40-40
				s40,18,40,40C567,5606.4,549,5624.4,527,5624.4 M527,5464.4c-66.3,0-120,53.7-120,120c0,66.3,53.7,120,120,120s120-53.7,120-120
				C647,5518.1,593.3,5464.4,527,5464.4 M527,5959c0,0-200-280-200-400c0-110.3,89.7-200,200-200s200,89.7,200,200
				C727,5679,527,5959,527,5959 M527,5279c-154.6,0-280,125.4-280,280s280,520,280,520s280-365.4,280-520S681.6,5279,527,5279"/>
		</g>
	</g>
</g>
</svg>
